<?xml version="1.0" standalone="no"?>
<!DOCTYPE svg PUBLIC "-//W3C//DTD SVG 20010904//EN"
 "http://www.w3.org/TR/2001/REC-SVG-20010904/DTD/svg10.dtd">
<svg version="1.0" xmlns="http://www.w3.org/2000/svg"
 width="4500.000000pt" height="4500.000000pt" viewBox="0 0 4500.000000 4500.000000"
 preserveAspectRatio="xMidYMid meet">

<g transform="translate(0.000000,4500.000000) scale(0.100000,-0.100000)"
fill="#000000" stroke="none">
<path d="M31756 30679 c-114 -39 -196 -107 -260 -212 -63 -106 -66 -136 -66
-704 l1 -508 172 -122 c740 -524 1405 -1188 1937 -1933 805 -1128 1319 -2481
1444 -3801 12 -125 14 330 15 3373 1 2552 -2 3532 -10 3570 -29 136 -121 253
-247 315 l-76 38 -1425 2 c-1411 2 -1427 2 -1485 -18z"/>
<path d="M25505 30600 c-968 -149 -2091 -581 -3018 -1161 -749 -469 -1463
-1103 -1999 -1776 -728 -913 -1229 -1901 -1537 -3024 -134 -491 -220 -1001
-261 -1544 -18 -235 -24 -800 -11 -1010 37 -588 104 -1045 227 -1544 238 -965
616 -1815 1183 -2656 513 -762 1230 -1496 1996 -2045 1051 -752 2223 -1231
3501 -1431 l141 -22 169 28 c2116 340 3987 1478 5268 3205 836 1126 1363 2442
1541 3842 48 386 59 572 59 1038 0 466 -11 652 -59 1038 -282 2224 -1445 4209
-3255 5557 -1044 776 -2325 1309 -3607 1499 -199 30 -182 30 -338 6z m1610
-3190 c525 -34 1028 -145 1510 -335 178 -70 519 -239 695 -344 1298 -780 2171
-2109 2360 -3594 43 -338 51 -783 20 -1097 -100 -1013 -481 -1918 -1144 -2715
-130 -156 -437 -463 -596 -594 -782 -652 -1677 -1029 -2672 -1127 -208 -21
-648 -23 -848 -5 -1176 106 -2224 594 -3050 1421 -838 838 -1336 1923 -1430
3114 -22 280 -8 755 30 1026 206 1472 1044 2752 2318 3543 190 118 542 295
747 376 662 260 1373 375 2060 331z"/>
<path d="M16675 29429 c-4304 -557 -4704 -610 -4752 -633 -87 -42 -132 -121
-133 -232 0 -70 18 -130 55 -178 27 -35 102 -80 150 -90 17 -3 1447 -137 3180
-297 l3149 -291 24 28 c251 297 634 692 882 909 631 551 1337 1006 2065 1330
72 32 132 59 134 61 2 2 -9 4 -25 3 -16 -1 -2144 -275 -4729 -610z"/>
<path d="M34992 22330 c-8 -535 -83 -1139 -212 -1690 -283 -1216 -868 -2389
-1670 -3350 -321 -384 -727 -787 -1110 -1101 -122 -100 -405 -314 -502 -379
l-67 -45 -1 -527 c0 -346 4 -545 11 -580 28 -137 126 -259 256 -321 l68 -32
1445 0 1445 0 78 37 c129 62 216 167 251 304 15 56 16 429 13 3955 -1 2142 -3
3820 -5 3729z"/>
<path d="M18290 17254 c-8 -2 -1131 -125 -2495 -274 -1364 -149 -2503 -278
-2530 -285 -64 -18 -126 -71 -155 -132 -28 -56 -33 -165 -11 -227 18 -52 77
-115 127 -138 30 -13 1187 -182 4026 -588 2191 -313 3989 -570 3994 -570 5 0
-85 47 -201 104 -798 391 -1496 886 -2134 1511 -169 166 -369 379 -487 522
-69 83 -81 90 -134 77z"/>
</g>
</svg>
